<?xml version="1.0" encoding="utf-8"?>
<!-- Generator: Adobe Illustrator 24.0.1, SVG Export Plug-In . SVG Version: 6.00 Build 0)  -->
<svg version="1.1" xmlns="http://www.w3.org/2000/svg" xmlns:xlink="http://www.w3.org/1999/xlink" x="0px" y="0px"
	 viewBox="0 0 1920 1080" style="enable-background:new 0 0 1920 1080;" xml:space="preserve">
<style type="text/css">
	.st0{display:none;}
	.st1{display:inline;opacity:0.77;}
	.st2{display:inline;fill:none;stroke:#000000;stroke-width:2;stroke-miterlimit:10;}
	.st3{display:inline;}
	.st4{fill:none;stroke:#000000;stroke-miterlimit:10;}
	.st5{fill:none;stroke:#999999;stroke-miterlimit:10;}
</style>
<g id="Capa_1" class="st0">
	<g id="DAajTF.tif" class="st1">
		
			<image style="overflow:visible;" width="536" height="407" id="Layer_0_4_" xlink:href="9D6AC4D7E8239CB8.png"  transform="matrix(2.8403 0 0 2.8403 235 0)">
		</image>
	</g>
</g>
<g id="Capa_2" class="st0">
	<line class="st2" x1="-405" y1="-1203" x2="-394" y2="-601"/>
	<line class="st2" x1="34.5" y1="-885.5" x2="-422.5" y2="-1091.5"/>
	<line class="st2" x1="-6.5" y1="-911.5" x2="-193.5" y2="-988.5"/>
	<line class="st2" x1="-731.5" y1="-892.5" x2="-328.5" y2="-1109.5"/>
	<line class="st2" x1="-691.5" y1="-1001.5" x2="-682.5" y2="-570.5"/>
	<line class="st2" x1="-563.5" y1="-982.5" x2="-560.5" y2="-703.5"/>
	<line class="st2" x1="-641.5" y1="-654.5" x2="-445.5" y2="-727.5"/>
	<line class="st2" x1="-396.5" y1="-736.5" x2="-530.5" y2="-691.5"/>
	<line class="st2" x1="-543.5" y1="-707.5" x2="-399.5" y2="-756.5"/>
	<line class="st2" x1="-519.5" y1="-736.5" x2="-397.5" y2="-774.5"/>
	<line class="st2" x1="-555.5" y1="-771.5" x2="-554.5" y2="-686.5"/>
	<line class="st2" x1="-439.5" y1="-775.5" x2="-560.5" y2="-736.5"/>
	<line class="st2" x1="-520.5" y1="-766.5" x2="-408.5" y2="-804.5"/>
	<line class="st2" x1="-543.5" y1="-774.5" x2="-398.5" y2="-822.5"/>
	<line class="st2" x1="-543.5" y1="-798.5" x2="-398.5" y2="-843.5"/>
	<line class="st2" x1="-505.5" y1="-826.5" x2="-399.5" y2="-859.5"/>
	<line class="st2" x1="-458.5" y1="-852.5" x2="-561.5" y2="-821.5"/>
	<line class="st2" x1="-543.5" y1="-847.5" x2="-399.5" y2="-896.5"/>
	<line class="st2" x1="-561.5" y1="-857.5" x2="-419.5" y2="-911.5"/>
	<line class="st2" x1="-538.5" y1="-884.5" x2="-400.5" y2="-937.5"/>
	<line class="st2" x1="-554.5" y1="-902.5" x2="-400.5" y2="-959.5"/>
	<line class="st2" x1="-543.5" y1="-922.5" x2="-400.5" y2="-982.5"/>
	<line class="st2" x1="-561.5" y1="-925.5" x2="-401.5" y2="-994.5"/>
	<line class="st2" x1="-543.5" y1="-950.5" x2="-401.5" y2="-1013.5"/>
	<line class="st2" x1="-563.5" y1="-952.5" x2="-399.5" y2="-1034.5"/>
	<line class="st2" x1="-416.5" y1="-1045.5" x2="-563.5" y2="-982.5"/>
	<line class="st2" x1="-696.5" y1="-565.5" x2="-365.5" y2="-649.5"/>
	<line class="st2" x1="-430.5" y1="-647.5" x2="-194.5" y2="-616.5"/>
	<line class="st2" x1="-216.5" y1="-1050.5" x2="-215.5" y2="-592.5"/>
	<line class="st2" x1="-516.5" y1="-562.5" x2="-215.5" y2="-619.5"/>
	<line class="st2" x1="-682.5" y1="-570.5" x2="-516.5" y2="-562.5"/>
	<line class="st2" x1="-1160.5" y1="-371.5" x2="760.5" y2="-379.5"/>
	<line class="st2" x1="-892.5" y1="-380.5" x2="-658.5" y2="-373.5"/>
	<line class="st2" x1="-658.5" y1="-569.5" x2="-658.5" y2="-373.5"/>
	<line class="st2" x1="-754.5" y1="-631.5" x2="-750.5" y2="-421.5"/>
	<line class="st2" x1="-683.5" y1="-603.5" x2="-785.5" y2="-574.5"/>
	<line class="st2" x1="-682.5" y1="-588.5" x2="-763.5" y2="-561.5"/>
	<line class="st2" x1="-712.5" y1="-471.5" x2="-713.5" y2="-578.5"/>
	<line class="st2" x1="-760.5" y1="-463.5" x2="-658.5" y2="-479.5"/>
	<line class="st2" x1="-682.5" y1="-570.5" x2="-681.5" y2="-506.5"/>
	<line class="st2" x1="19.5" y1="-860.5" x2="390.5" y2="-714.5"/>
	<line class="st2" x1="7.5" y1="-555.5" x2="394.5" y2="-476.5"/>
	<line class="st2" x1="-236.5" y1="-931.5" x2="-53.5" y2="-860.5"/>
	<line class="st2" x1="-62.5" y1="-944.5" x2="-64.5" y2="-805.5"/>
	<line class="st2" x1="-237.5" y1="-871.5" x2="-156.5" y2="-837.5"/>
	<line class="st2" x1="-156.5" y1="-863.5" x2="-157.5" y2="-776.5"/>
	<line class="st2" x1="-63.5" y1="-864.5" x2="-156.5" y2="-837.5"/>
	<line class="st2" x1="-196.5" y1="-763.5" x2="-199.5" y2="-837.5"/>
	<line class="st2" x1="-11.5" y1="-906.5" x2="-11.5" y2="-825.5"/>
	<line class="st2" x1="-238.5" y1="-751.5" x2="55.5" y2="-850.5"/>
	<line class="st2" x1="-234.5" y1="-744.5" x2="8.5" y2="-834.5"/>
	<line class="st2" x1="-127" y1="-522" x2="146" y2="-476"/>
	<line class="st2" x1="146" y1="-359" x2="146" y2="-476"/>
	<line class="st2" x1="346" y1="-486" x2="146" y2="-476"/>
	<line class="st2" x1="345" y1="-771" x2="347" y2="-471"/>
	<line class="st2" x1="329" y1="-753" x2="329" y2="-502"/>
	<line class="st2" x1="59" y1="-578" x2="337" y2="-509"/>
	<line class="st2" x1="65" y1="-826" x2="67" y2="-582"/>
	<line class="st2" x1="56" y1="-815" x2="329" y2="-717"/>
	<line class="st2" x1="53" y1="-717" x2="152" y2="-680"/>
	<line class="st2" x1="329" y1="-717" x2="152" y2="-680"/>
	<line class="st2" x1="152" y1="-544" x2="152" y2="-680"/>
	<line class="st2" x1="103" y1="-699" x2="103" y2="-558"/>
	<line class="st2" x1="-127" y1="-522" x2="58" y2="-545"/>
	<line class="st2" x1="-124" y1="-354" x2="-127" y2="-522"/>
	<line class="st2" x1="39" y1="-866" x2="49" y2="-516"/>
	<line class="st2" x1="-770" y1="-438" x2="-641" y2="-456"/>
	<line class="st2" x1="-658" y1="-438" x2="-752" y2="-440"/>
	<line class="st2" x1="-659" y1="-480" x2="-531" y2="-497"/>
	<line class="st2" x1="-531" y1="-563" x2="-531" y2="-497"/>
	<line class="st2" x1="-575" y1="-567" x2="-575" y2="-491"/>
	<line class="st2" x1="-618" y1="-567" x2="-617" y2="-486"/>
	<line class="st2" x1="-584" y1="-374" x2="-583" y2="-460"/>
	<line class="st2" x1="-600" y1="-458" x2="-277" y2="-502"/>
	<line class="st2" x1="-327" y1="-375" x2="-327" y2="-495"/>
	<line class="st2" x1="-327" y1="-534" x2="-327" y2="-495"/>
	<line class="st2" x1="-227" y1="-514" x2="-142" y2="-524"/>
	<line class="st2" x1="-150" y1="-567" x2="-149" y2="-367"/>
	<line class="st2" x1="-216" y1="-546" x2="-216" y2="-375"/>
	<g id="KThin9.tif" class="st3">
		
			<image style="overflow:visible;" width="563" height="437" id="Layer_0_5_" xlink:href="9D6AC4D7E8239CB9.png"  transform="matrix(3.1613 0 0 3.1613 70 -65)">
		</image>
	</g>
</g>
<g id="Capa_3">
	<line class="st4" x1="908.69" y1="126.99" x2="908.69" y2="766.69"/>
	<line class="st4" x1="695.62" y1="384.92" x2="908.2" y2="126.51"/>
	<line class="st4" x1="967.69" y1="146.01" x2="908.2" y2="126.51"/>
	<line class="st4" x1="969.64" y1="264" x2="967.69" y2="146.01"/>
	<line class="st4" x1="695.62" y1="384.92" x2="695.62" y2="456.1"/>
	<line class="st4" x1="695.62" y1="519.49" x2="695.62" y2="685.26"/>
	<line class="st4" x1="801.91" y1="726.22" x2="695.62" y2="685.26"/>
	<line class="st4" x1="643.94" y1="412.22" x2="908.2" y2="87.5"/>
	<line class="st4" x1="909.18" y1="106.03" x2="643.94" y2="427.83"/>
	<line class="st4" x1="695.62" y1="427.83" x2="643.94" y2="427.83"/>
	<line class="st4" x1="643.94" y1="412.22" x2="643.94" y2="427.83"/>
	<line class="st4" x1="909.18" y1="106.03" x2="984.27" y2="132.36"/>
	<line class="st4" x1="984.27" y1="264" x2="984.27" y2="132.36"/>
	<line class="st4" x1="1246.58" y1="316.66" x2="984.27" y2="264"/>
	<line class="st4" x1="968.66" y1="266.93" x2="1215.37" y2="316.66"/>
	<line class="st4" x1="1246.58" y1="316.66" x2="1215.37" y2="316.66"/>
	<line class="st4" x1="967.69" y1="146.01" x2="984.27" y2="132.36"/>
	<line class="st4" x1="908.2" y1="87.5" x2="1244.63" y2="207.44"/>
	<line class="st4" x1="1246.58" y1="316.66" x2="1246.58" y2="207.44"/>
	<line class="st4" x1="718.05" y1="415.15" x2="881.88" y2="209.39"/>
	<line class="st4" x1="881.88" y1="408.32" x2="881.88" y2="209.39"/>
	<line class="st4" x1="718.05" y1="415.15" x2="881.88" y2="408.32"/>
	<line class="st4" x1="881.88" y1="232.8" x2="737.55" y2="414.17"/>
	<line class="st4" x1="1263.16" y1="577.02" x2="908.2" y2="284.48"/>
	<line class="st4" x1="909.18" y1="539.97" x2="1263.16" y2="577.02"/>
	<line class="st4" x1="1360.67" y1="352.74" x2="1599.58" y2="505.84"/>
	<line class="st4" x1="1263.16" y1="577.02" x2="1530.35" y2="520.46"/>
	<line class="st4" x1="1562.53" y1="513.64" x2="1599.58" y2="505.84"/>
	<line class="st4" x1="908.2" y1="284.48" x2="1360.67" y2="352.74"/>
	<line class="st4" x1="1224.15" y1="316.66" x2="1224.15" y2="332.26"/>
	<line class="st4" x1="909.18" y1="767.18" x2="973.54" y2="745.72"/>
	<line class="st4" x1="973.54" y1="546.79" x2="973.54" y2="745.72"/>
	<line class="st4" x1="1013.52" y1="756.45" x2="973.54" y2="745.72"/>
	<line class="st4" x1="1033.02" y1="751.57" x2="1013.52" y2="756.45"/>
	<line class="st4" x1="1033.02" y1="570.2" x2="1033.02" y2="751.57"/>
	<line class="st4" x1="1012.54" y1="564.35" x2="1013.52" y2="756.45"/>
	<line class="st4" x1="1079.83" y1="574.1" x2="1012.54" y2="564.35"/>
	<line class="st4" x1="1078.85" y1="779.85" x2="1079.83" y2="574.1"/>
	<line class="st4" x1="1033.02" y1="751.57" x2="1078.85" y2="767.18"/>
	<line class="st4" x1="1316.79" y1="854.94" x2="1078.85" y2="779.85"/>
	<line class="st4" x1="1316.79" y1="565.32" x2="1316.79" y2="854.94"/>
	<line class="st4" x1="1600.56" y1="654.06" x2="1316.79" y2="854.94"/>
	<line class="st4" x1="1321.67" y1="865.66" x2="1612.26" y2="651.13"/>
	<line class="st4" x1="1322.64" y1="943.68" x2="1612.26" y2="691.11"/>
	<line class="st4" x1="1321.67" y1="865.66" x2="1322.64" y2="943.68"/>
	<line class="st4" x1="1209.52" y1="898.82" x2="1322.64" y2="943.68"/>
	<line class="st4" x1="1209.52" y1="826.66" x2="1321.67" y2="865.66"/>
	<line class="st4" x1="1209.52" y1="898.82" x2="1209.52" y2="826.66"/>
	<line class="st4" x1="1103.23" y1="886.14" x2="1209.52" y2="826.66"/>
	<line class="st4" x1="961.84" y1="1065.57" x2="961.84" y2="1030.46"/>
	<line class="st4" x1="1036.92" y1="984.63" x2="961.84" y2="1030.46"/>
	<line class="st4" x1="1036.92" y1="953.43" x2="1036.92" y2="984.63"/>
	<line class="st4" x1="1105.18" y1="915.4" x2="1036.92" y2="953.43"/>
	<line class="st4" x1="1103.23" y1="886.14" x2="1103.23" y2="915.4"/>
	<line class="st4" x1="961.84" y1="1065.57" x2="1209.52" y2="898.82"/>
	<line class="st4" x1="720" y1="902.72" x2="961.84" y2="1065.57"/>
	<line class="st4" x1="722.93" y1="879.32" x2="961.84" y2="1030.46"/>
	<line class="st4" x1="788.26" y1="856.89" x2="1036.92" y2="984.63"/>
	<line class="st4" x1="789.24" y1="830.56" x2="1036.92" y2="953.43"/>
	<line class="st4" x1="852.62" y1="808.13" x2="1105.18" y2="915.4"/>
	<line class="st4" x1="788.26" y1="856.89" x2="722.93" y2="879.32"/>
	<line class="st4" x1="721.95" y1="825.68" x2="721.95" y2="904.67"/>
	<line class="st4" x1="354.32" y1="624.8" x2="721.95" y2="825.68"/>
	<line class="st4" x1="352.37" y1="660.88" x2="721.95" y2="904.67"/>
	<line class="st4" x1="354.32" y1="624.8" x2="352.37" y2="660.88"/>
	<line class="st4" x1="695.62" y1="585.8" x2="354.32" y2="624.8"/>
	<line class="st4" x1="1600.56" y1="654.06" x2="1599.58" y2="505.84"/>
	<line class="st4" x1="1612.26" y1="651.13" x2="1600.56" y2="651.13"/>
	<line class="st4" x1="1612.26" y1="691.11" x2="1612.26" y2="651.13"/>
	<line class="st4" x1="1445.51" y1="460" x2="1530.35" y2="520.46"/>
	<line class="st4" x1="1563.5" y1="513.64" x2="1484.51" y2="460"/>
	<line class="st4" x1="1445.51" y1="460" x2="1484.51" y2="460"/>
	<line class="st4" x1="1455.26" y1="466.83" x2="1495.24" y2="466.83"/>
	<line class="st4" x1="1530.35" y1="520.46" x2="1530.35" y2="586.77"/>
	<line class="st4" x1="1563.5" y1="513.64" x2="1563.5" y2="571.17"/>
	<line class="st4" x1="1530.35" y1="586.77" x2="1563.5" y2="571.17"/>
	<line class="st4" x1="1555.7" y1="513.64" x2="1555.7" y2="575.07"/>
	<line class="st4" x1="1487.44" y1="466.83" x2="1555.7" y2="513.64"/>
	<line class="st4" x1="1160.77" y1="584.82" x2="1203.67" y2="587.75"/>
	<line class="st4" x1="1202.7" y1="742.8" x2="1203.67" y2="587.75"/>
	<line class="st4" x1="1160.77" y1="732.07" x2="1202.7" y2="742.8"/>
	<line class="st4" x1="1160.77" y1="584.82" x2="1160.77" y2="732.07"/>
	<line class="st4" x1="1173.44" y1="584.82" x2="1172.47" y2="726.22"/>
	<line class="st4" x1="1202.7" y1="732.07" x2="1172.47" y2="726.22"/>
	<line class="st4" x1="1491.34" y1="592.62" x2="1491.34" y2="641.38"/>
	<line class="st4" x1="1355.8" y1="707.69" x2="1491.34" y2="641.38"/>
	<line class="st4" x1="1355.8" y1="692.09" x2="1472.81" y2="638.46"/>
	<line class="st4" x1="1472.81" y1="599.45" x2="1472.81" y2="638.46"/>
	<line class="st4" x1="1491.34" y1="640.41" x2="1472.81" y2="638.46"/>
	<line class="st4" x1="1356.77" y1="642.36" x2="1491.34" y2="592.62"/>
	<line class="st4" x1="1355.8" y1="707.69" x2="1356.77" y2="642.36"/>
	<line class="st4" x1="1103.23" y1="886.14" x2="854.57" y2="782.78"/>
	<line class="st4" x1="852.62" y1="808.13" x2="852.62" y2="783.75"/>
	<line class="st4" x1="721.95" y1="825.68" x2="854.57" y2="782.78"/>
	<line class="st4" x1="789.24" y1="830.56" x2="852.62" y2="808.13"/>
	<line class="st4" x1="788.26" y1="856.89" x2="789.24" y2="830.56"/>
	<line class="st4" x1="664.42" y1="456.1" x2="881.88" y2="456.1"/>
	<line class="st4" x1="881.88" y1="753.52" x2="881.88" y2="456.1"/>
	<line class="st4" x1="804.84" y1="745.72" x2="804.84" y2="528.27"/>
	<line class="st4" x1="664.42" y1="514.61" x2="804.84" y2="528.27"/>
	<line class="st4" x1="664.42" y1="456.1" x2="664.42" y2="514.61"/>
	<line class="st4" x1="852.62" y1="762.3" x2="852.62" y2="456.1"/>
	<line class="st4" x1="881.88" y1="753.52" x2="852.62" y2="762.3"/>
	<line class="st4" x1="804.84" y1="745.72" x2="852.62" y2="762.3"/>
	<line class="st4" x1="909.18" y1="766.2" x2="881.88" y2="753.52"/>
	<line class="st4" x1="716.1" y1="534.12" x2="787.29" y2="541.92"/>
	<line class="st4" x1="786.31" y1="636.51" x2="786.31" y2="541.92"/>
	<line class="st4" x1="715.13" y1="617.98" x2="786.31" y2="636.51"/>
	<line class="st4" x1="716.1" y1="534.12" x2="716.1" y2="617.98"/>
	<line class="st4" x1="742.43" y1="537.04" x2="742.43" y2="613.1"/>
	<line class="st4" x1="716.1" y1="617.98" x2="742.43" y2="613.1"/>
	<line class="st4" x1="786.31" y1="623.83" x2="742.43" y2="613.1"/>
	<line class="st4" x1="1013.52" y1="242.55" x2="1224.15" y2="290.33"/>
	<line class="st4" x1="1224.15" y1="232.8" x2="1224.15" y2="290.33"/>
	<line class="st4" x1="1012.54" y1="165.51" x2="1224.15" y2="232.8"/>
	<line class="st4" x1="1013.52" y1="242.55" x2="1012.54" y2="165.51"/>
	<line class="st4" x1="1012.54" y1="179.16" x2="1205.62" y2="235.72"/>
	<line class="st4" x1="1206.6" y1="286.43" x2="1205.62" y2="235.72"/>
	<line class="st4" x1="1224.15" y1="232.8" x2="1205.62" y2="235.72"/>
	<line class="st4" x1="919.91" y1="446.35" x2="1097.38" y2="446.35"/>
	<line class="st4" x1="1097.38" y1="530.22" x2="1097.38" y2="446.35"/>
	<line class="st4" x1="919.91" y1="517.54" x2="1097.38" y2="530.22"/>
	<line class="st4" x1="919.91" y1="446.35" x2="919.91" y2="517.54"/>
	<line class="st4" x1="929.66" y1="463.91" x2="929.66" y2="504.86"/>
	<line class="st4" x1="1070.08" y1="463.91" x2="929.66" y2="463.91"/>
	<line class="st4" x1="1070.08" y1="510.71" x2="1070.08" y2="463.91"/>
	<line class="st4" x1="929.66" y1="504.86" x2="1070.08" y2="510.71"/>
	<line class="st4" x1="952.09" y1="463.91" x2="952.09" y2="505.84"/>
	<line class="st4" x1="1083.73" y1="446.35" x2="1083.73" y2="528.27"/>
	<g>
		<line class="st5" x1="722.93" y1="876.79" x2="33.99" y2="446.84"/>
		<line class="st5" x1="721.86" y1="904.67" x2="33.99" y2="446.84"/>
		<line class="st5" x1="968.66" y1="266.93" x2="33.5" y2="446.35"/>
		<line class="st5" x1="649.79" y1="421" x2="33.5" y2="446.35"/>
		<line class="st5" x1="919.91" y1="446.35" x2="33.5" y2="446.35"/>
		<line class="st5" x1="929.66" y1="463.91" x2="33.5" y2="446.35"/>
		<line class="st5" x1="788.26" y1="856.89" x2="33.5" y2="446.35"/>
		<line class="st5" x1="789.24" y1="830.56" x2="33.5" y2="446.35"/>
		<line class="st5" x1="1343.12" y1="953.43" x2="33.5" y2="446.35"/>
		<line class="st5" x1="716.1" y1="534.12" x2="33.5" y2="446.35"/>
		<line class="st5" x1="716.1" y1="617.98" x2="33.5" y2="446.35"/>
		<line class="st5" x1="695.62" y1="685.26" x2="33.5" y2="446.35"/>
		<line class="st5" x1="1160.77" y1="732.07" x2="33.5" y2="446.35"/>
		<line class="st5" x1="786.31" y1="808.13" x2="33.5" y2="446.35"/>
		<line class="st5" x1="821.42" y1="796.43" x2="33.5" y2="446.35"/>
		<line class="st5" x1="854.57" y1="782.78" x2="33.5" y2="446.35"/>
		<line class="st5" x1="1033.02" y1="751.57" x2="33.5" y2="446.35"/>
		<line class="st5" x1="973.54" y1="745.72" x2="33.5" y2="446.35"/>
		<line class="st5" x1="1188.07" y1="514.61" x2="33.5" y2="446.35"/>
		<line class="st5" x1="1263.16" y1="577.02" x2="33.5" y2="446.35"/>
		<line class="st5" x1="1238.78" y1="556.54" x2="33.5" y2="446.35"/>
		<line class="st5" x1="1197.82" y1="528.27" x2="33.5" y2="446.35"/>
	</g>
	<line class="st5" x1="742.43" y1="613.1" x2="1224.15" y2="546.79"/>
	<g>
		<line class="st5" x1="1897" y1="446.35" x2="1584.95" y2="714.52"/>
		<line class="st5" x1="1244.63" y1="207.44" x2="1897" y2="446.35"/>
		<line class="st5" x1="1246.58" y1="234.75" x2="1897" y2="446.35"/>
		<line class="st5" x1="788.26" y1="856.89" x2="1897" y2="446.35"/>
		<line class="st5" x1="840.92" y1="1030.46" x2="1897" y2="446.35"/>
		<line class="st5" x1="1266.08" y1="991.46" x2="1897" y2="446.35"/>
		<line class="st5" x1="1209.52" y1="898.82" x2="1897" y2="446.35"/>
		<line class="st5" x1="1036.92" y1="984.63" x2="1897" y2="446.35"/>
		<line class="st5" x1="1103.23" y1="915.4" x2="1897" y2="446.35"/>
		<line class="st5" x1="984.27" y1="146.98" x2="1897" y2="446.35"/>
		<line class="st5" x1="1224.15" y1="290.33" x2="1897" y2="446.35"/>
		<line class="st5" x1="1360.67" y1="352.74" x2="1897" y2="446.35"/>
		<line class="st5" x1="1097.38" y1="446.35" x2="1897" y2="446.35"/>
		<line class="st5" x1="1097.38" y1="530.22" x2="1897" y2="446.35"/>
		<line class="st5" x1="1263.16" y1="577.02" x2="1897" y2="446.35"/>
		<line class="st5" x1="804.84" y1="745.72" x2="1897" y2="446.35"/>
		<line class="st5" x1="881.88" y1="753.52" x2="1897" y2="446.35"/>
		<line class="st5" x1="973.54" y1="745.72" x2="1897" y2="446.35"/>
		<line class="st5" x1="1033.02" y1="751.57" x2="1897" y2="446.35"/>
		<line class="st5" x1="1491.34" y1="640.41" x2="1897" y2="446.35"/>
		<line class="st5" x1="1612.26" y1="651.13" x2="1897" y2="446.35"/>
		<line class="st5" x1="1118.84" y1="562.4" x2="1897" y2="446.35"/>
		<line class="st5" x1="721.95" y1="584.82" x2="1897" y2="446.35"/>
	</g>
</g>
</svg>
