<?xml version="1.0" encoding="utf-8"?>
<!-- Generator: Adobe Illustrator 24.0.1, SVG Export Plug-In . SVG Version: 6.00 Build 0)  -->
<svg version="1.1" xmlns="http://www.w3.org/2000/svg" xmlns:xlink="http://www.w3.org/1999/xlink" x="0px" y="0px"
	 viewBox="0 0 1366 768" style="enable-background:new 0 0 1366 768;" xml:space="preserve">
<style type="text/css">
	.st0{display:none;}
	.st1{display:inline;}
	.st2{fill:#1D68A3;}
	.st3{fill:none;stroke:#000505;stroke-miterlimit:10;}
	.st4{fill:#4497BA;stroke:#000505;stroke-miterlimit:10;}
	.st5{fill:#82CCEF;stroke:#000505;stroke-miterlimit:10;}
	.st6{fill:#80CDEF;stroke:#000505;stroke-miterlimit:10;}
	.st7{fill:#3793B9;stroke:#000505;stroke-miterlimit:10;}
	.st8{fill:#1D68A3;stroke:#000505;stroke-miterlimit:10;}
	.st9{fill:#FDFEFF;stroke:#000505;stroke-miterlimit:10;}
	.st10{fill:#67A9C6;stroke:#000505;stroke-miterlimit:10;}
	.st11{fill:#414F50;stroke:#000505;stroke-miterlimit:10;}
	.st12{fill:#1F4D85;stroke:#000505;stroke-miterlimit:10;}
</style>
<g id="Capa_1" class="st0">
	<g id="_x36_LlRGo.tif" class="st1">
		
			<image style="overflow:visible;" width="474" height="396" xlink:href="96DC304A4B3C92DD.png"  transform="matrix(1.943 0 0 1.943 209.8481 0)">
		</image>
	</g>
</g>
<g id="Capa_2">
	<rect x="0.5" y="1.5" class="st2" width="1365" height="768"/>
	<line class="st3" x1="843.29" y1="167.59" x2="843.22" y2="164.13"/>
	<line class="st3" x1="613.72" y1="550.79" x2="613.67" y2="550.74"/>
	<line class="st3" x1="631.38" y1="538.43" x2="631.38" y2="536.98"/>
	<line class="st3" x1="975.73" y1="201.14" x2="631.38" y2="483.69"/>
	<line class="st3" x1="979.26" y1="404.22" x2="981.03" y2="209.97"/>
	<line class="st3" x1="968.67" y1="402.46" x2="972.2" y2="213.5"/>
	<line class="st3" x1="1116.12" y1="246.17" x2="981.03" y2="209.97"/>
	<line class="st3" x1="971.32" y1="212.62" x2="630.5" y2="489.87"/>
	<polygon class="st4" points="1035.77,768 749.7,768 747.93,699.13 1034.89,525.19 	"/>
	<polygon class="st5" points="1366,598.47 1366,768 1035.77,768 1034.89,525.19 	"/>
	<polygon class="st6" points="1366,245.29 1366,550.79 845.06,434.24 843.29,372.44 1115.24,437.77 1117.01,239.99 843.29,164.06 
		843.22,164.13 841.52,89.89 	"/>
	<polygon class="st7" points="631.38,483.69 631.38,536.98 613.67,550.74 523.66,457.2 	"/>
	<polygon class="st8" points="631.38,536.98 843.29,372.44 1115.24,437.77 1117.01,239.99 843.29,164.06 843.22,164.13 
		523.66,457.2 631.38,483.69 	"/>
	<polygon class="st9" points="845.06,434.24 511.3,681.47 506,411.29 841.52,89.89 843.22,164.13 523.66,457.2 527.19,617.9 
		613.67,550.74 631.38,536.98 843.29,372.44 	"/>
	<polygon class="st10" points="613.67,550.74 527.19,617.9 523.66,457.2 	"/>
	<polygon class="st10" points="1366,550.79 1366,598.47 1034.01,524.3 747.93,699.13 747.93,718.55 511.3,681.47 845.06,434.24 	"/>
	<polygon class="st10" points="975.73,201.14 631.38,483.69 523.66,457.2 843.29,164.06 	"/>
	<polygon class="st11" points="1117.01,239.99 1117.01,247.06 981.03,209.97 979.26,404.22 968.67,402.46 972.2,213.5 
		631.38,488.99 631.38,483.69 975.73,201.14 	"/>
	<polygon class="st8" points="970.44,310.63 968.67,402.46 880.37,381.26 	"/>
	<polygon class="st8" points="1117.01,247.06 1115.24,437.77 979.26,404.22 981.03,209.97 	"/>
	<polygon class="st12" points="972.2,213.5 970.44,310.63 880.37,381.26 843.29,372.44 631.38,536.67 631.38,488.99 	"/>
	<g>
	</g>
	<g>
	</g>
	<g>
	</g>
	<g>
	</g>
	<g>
	</g>
	<g>
	</g>
	<g>
	</g>
	<g>
	</g>
	<g>
	</g>
	<g>
	</g>
	<g>
	</g>
	<g>
	</g>
	<g>
	</g>
	<g>
	</g>
	<g>
	</g>
</g>
</svg>
